<?xml version="1.0" encoding="UTF-8" standalone="no"?>
<svg
   xmlns:dc="http://purl.org/dc/elements/1.1/"
   xmlns:cc="http://creativecommons.org/ns#"
   xmlns:rdf="http://www.w3.org/1999/02/22-rdf-syntax-ns#"
   xmlns:svg="http://www.w3.org/2000/svg"
   xmlns="http://www.w3.org/2000/svg"
   xmlns:sodipodi="http://sodipodi.sourceforge.net/DTD/sodipodi-0.dtd"
   xmlns:inkscape="http://www.inkscape.org/namespaces/inkscape"
   version="1.1"
   id="Capa_1"
   x="0px"
   y="0px"
   viewBox="0 0 17.462766 19.533201"
   xml:space="preserve"
   sodipodi:docname="funnel.svg"
   width="17.462767"
   height="19.533201"
   inkscape:version="1.0.1 (3bc2e813f5, 2020-09-07)"><metadata
   id="metadata43"><rdf:RDF><cc:Work
       rdf:about=""><dc:format>image/svg+xml</dc:format><dc:type
         rdf:resource="http://purl.org/dc/dcmitype/StillImage" /></cc:Work></rdf:RDF></metadata><defs
   id="defs41" /><sodipodi:namedview
   pagecolor="#ffffff"
   bordercolor="#666666"
   borderopacity="1"
   objecttolerance="10"
   gridtolerance="10"
   guidetolerance="10"
   inkscape:pageopacity="0"
   inkscape:pageshadow="2"
   inkscape:window-width="1519"
   inkscape:window-height="769"
   id="namedview39"
   showgrid="false"
   inkscape:zoom="2.8284271"
   inkscape:cx="47.181242"
   inkscape:cy="67.361794"
   inkscape:window-x="0"
   inkscape:window-y="237"
   inkscape:window-maximized="0"
   inkscape:current-layer="Capa_1" />
<g
   id="g6"
   transform="matrix(0.05228373,0,0,0.05228373,-1.0352179,0)"
   style="fill:#e1ffc4;fill-opacity:1">
	<g
   id="g4"
   style="fill:#e1ffc4;fill-opacity:1">
		<path
   d="M 343.7,0 H 29.9 C 24.4,0 19.8,4.9 19.8,10.5 v 64.2 c 0,0.3 0,0.6 0.1,1 0,0.1 0.1,0.3 0.1,0.4 0,0.2 0.1,0.3 0.1,0.5 0,0.2 0.1,0.3 0.1,0.5 0,0.1 0.1,0.3 0.1,0.4 0.1,0.2 0.1,0.4 0.2,0.5 0,0.1 0.1,0.2 0.1,0.4 0.1,0.2 0.1,0.3 0.2,0.5 0.1,0.1 0.1,0.2 0.2,0.4 0.1,0.2 0.2,0.3 0.2,0.4 0.1,0.1 0.1,0.3 0.2,0.4 0.1,0.1 0.2,0.3 0.3,0.4 0.1,0.1 0.2,0.3 0.3,0.4 0.1,0.1 0.2,0.2 0.3,0.4 0.1,0.1 0.2,0.1 0.2,0.2 l 114.3,124.6 v 157.5 c 0,3.9 2.2,7.4 5.7,9.1 1.3,0.6 2.7,0.9 4.2,0.9 2.4,0 4.7,-0.8 6.5,-2.4 l 80.2,-68.3 c 2.2,-1.9 3.5,-4.7 3.4,-7.6 V 206.1 L 351,81.4 c 0.1,-0.1 0.1,-0.1 0.2,-0.2 0.1,-0.1 0.2,-0.2 0.3,-0.4 0.1,-0.1 0.2,-0.2 0.3,-0.4 0.1,-0.2 0.2,-0.3 0.3,-0.4 0.1,-0.1 0.2,-0.3 0.2,-0.4 0.1,-0.1 0.2,-0.3 0.3,-0.4 0.1,-0.1 0.1,-0.2 0.2,-0.4 0.1,-0.2 0.2,-0.3 0.2,-0.5 0,-0.1 0.1,-0.2 0.1,-0.4 0.1,-0.2 0.1,-0.3 0.2,-0.5 0,-0.1 0.1,-0.3 0.1,-0.4 0,-0.2 0.1,-0.3 0.1,-0.5 0,-0.2 0.1,-0.3 0.1,-0.5 0,-0.1 0.1,-0.3 0.1,-0.4 0,-0.3 0.1,-0.6 0.1,-1 V 10.4 C 353.8,4.9 349.3,0 343.7,0 Z M 219.5,195.6 c -1.7,1.8 -2.7,4.1 -2.7,6.6 v 88.4 l -60,51.3 V 202.2 c 0,-2.5 -1,-4.8 -2.7,-6.6 L 52.6,85 H 321 Z M 333.8,65 H 39.8 V 20 h 294 z"
   id="path2"
   style="fill:#e1ffc4;fill-opacity:1" />
	</g>
</g>
<g
   id="g8"
   transform="translate(-19.8)">
</g>
<g
   id="g10"
   transform="translate(-19.8)">
</g>
<g
   id="g12"
   transform="translate(-19.8)">
</g>
<g
   id="g14"
   transform="translate(-19.8)">
</g>
<g
   id="g16"
   transform="translate(-19.8)">
</g>
<g
   id="g18"
   transform="translate(-19.8)">
</g>
<g
   id="g20"
   transform="translate(-19.8)">
</g>
<g
   id="g22"
   transform="translate(-19.8)">
</g>
<g
   id="g24"
   transform="translate(-19.8)">
</g>
<g
   id="g26"
   transform="translate(-19.8)">
</g>
<g
   id="g28"
   transform="translate(-19.8)">
</g>
<g
   id="g30"
   transform="translate(-19.8)">
</g>
<g
   id="g32"
   transform="translate(-19.8)">
</g>
<g
   id="g34"
   transform="translate(-19.8)">
</g>
<g
   id="g36"
   transform="translate(-19.8)">
</g>
</svg>
