<?xml version="1.0" encoding="UTF-8" standalone="no"?>
<svg
   xmlns:dc="http://purl.org/dc/elements/1.1/"
   xmlns:cc="http://creativecommons.org/ns#"
   xmlns:rdf="http://www.w3.org/1999/02/22-rdf-syntax-ns#"
   xmlns:svg="http://www.w3.org/2000/svg"
   xmlns="http://www.w3.org/2000/svg"
   xmlns:sodipodi="http://sodipodi.sourceforge.net/DTD/sodipodi-0.dtd"
   xmlns:inkscape="http://www.inkscape.org/namespaces/inkscape"
   version="1.1"
   id="Capa_1"
   x="0px"
   y="0px"
   width="311.541px"
   height="311.541px"
   viewBox="0 0 311.541 311.541"
   style="enable-background:new 0 0 311.541 311.541;"
   xml:space="preserve"
   sodipodi:docname="user.svg"
   inkscape:version="1.0.1 (3bc2e813f5, 2020-09-07)"><metadata
   id="metadata43"><rdf:RDF><cc:Work
       rdf:about=""><dc:format>image/svg+xml</dc:format><dc:type
         rdf:resource="http://purl.org/dc/dcmitype/StillImage" /><dc:title></dc:title></cc:Work></rdf:RDF></metadata><defs
   id="defs41">
	

		
	</defs><sodipodi:namedview
   pagecolor="#ffffff"
   bordercolor="#666666"
   borderopacity="1"
   objecttolerance="10"
   gridtolerance="10"
   guidetolerance="10"
   inkscape:pageopacity="0"
   inkscape:pageshadow="2"
   inkscape:window-width="1655"
   inkscape:window-height="1110"
   id="namedview39"
   showgrid="false"
   inkscape:zoom="1.1796201"
   inkscape:cx="313.27905"
   inkscape:cy="228.67869"
   inkscape:window-x="0"
   inkscape:window-y="0"
   inkscape:window-maximized="0"
   inkscape:current-layer="Capa_1"
   inkscape:document-rotation="0" />
<rect
   style="fill:#e1ffc4;stroke-width:5.54079;fill-opacity:1"
   id="rect850"
   width="313.66031"
   height="311.96481"
   x="1.8992149e-07"
   y="3.7984299e-07" /><path
   style="fill:#000000"
   d="m 155.771,222.069 c -9.944,0 -19.314,-2.732 -27.634,-7.464 -20.05,-11.409 -33.855,-34.756 -33.855,-61.711 0,-38.143 27.583,-69.176 61.489,-69.176 33.909,0 61.489,31.033 61.489,69.176 0,27.369 -14.237,51.004 -34.786,62.215 -8.095,4.414 -17.128,6.96 -26.703,6.96 z"
   id="path873" /><path
   style="fill:#000000"
   d="m 35.314,280.863 c 3.404,-27.256 30.627,-50.308 68.8,-61.225 13.946,12.994 31.96,20.878 51.656,20.878 19.233,0 36.894,-7.487 50.698,-19.936 38.503,11.871 65.141,36.27 66.017,64.63 0.42242,82.06111 -237.516639,88.56276 -237.171,-4.347 z"
   id="path2"
   sodipodi:nodetypes="ccsccc" />
<g
   id="g8"
   style="fill:#000000">
</g>
<g
   id="g10"
   style="fill:#000000">
</g>
<g
   id="g12"
   style="fill:#000000">
</g>
<g
   id="g14"
   style="fill:#000000">
</g>
<g
   id="g16"
   style="fill:#000000">
</g>
<g
   id="g18"
   style="fill:#000000">
</g>
<g
   id="g20"
   style="fill:#000000">
</g>
<g
   id="g22"
   style="fill:#000000">
</g>
<g
   id="g24"
   style="fill:#000000">
</g>
<g
   id="g26"
   style="fill:#000000">
</g>
<g
   id="g28"
   style="fill:#000000">
</g>
<g
   id="g30"
   style="fill:#000000">
</g>
<g
   id="g32"
   style="fill:#000000">
</g>
<g
   id="g34"
   style="fill:#000000">
</g>
<g
   id="g36"
   style="fill:#000000">
</g>
</svg>
